<svg width="991" height="246" viewBox="0 0 991 246" fill="none" xmlns="http://www.w3.org/2000/svg">
<path d="M102.4 110.592H32.7678V187.136H-0.000175476V-0.000259399H115.712V30.2077H32.7678V81.1517H102.4V110.592ZM157.784 190.464C130.904 190.464 114.52 174.848 114.52 151.04C114.52 127.744 131.416 113.152 161.368 110.848L199.256 108.032V105.216C199.256 88.0637 189.016 81.1517 173.144 81.1517C154.712 81.1517 144.472 88.8317 144.472 102.144H117.848C117.848 74.7517 140.376 56.8317 174.68 56.8317C208.728 56.8317 229.72 75.2637 229.72 110.336V187.136H202.328L200.024 168.448C194.648 181.504 177.496 190.464 157.784 190.464ZM168.024 166.912C187.224 166.912 199.512 155.392 199.512 135.936V129.28L173.144 131.328C153.688 133.12 146.264 139.52 146.264 149.76C146.264 161.28 153.944 166.912 168.024 166.912ZM240.434 148.736H270.13C270.386 159.744 278.578 166.656 292.914 166.656C307.506 166.656 315.442 160.768 315.442 151.552C315.442 145.152 312.114 140.544 300.85 137.984L278.066 132.608C255.282 127.488 244.274 116.736 244.274 96.5117C244.274 71.6797 265.266 56.8317 294.45 56.8317C322.866 56.8317 342.066 73.2157 342.322 97.7917H312.626C312.37 87.0397 305.202 80.1277 293.17 80.1277C280.882 80.1277 273.714 85.7597 273.714 95.2317C273.714 102.4 279.346 107.008 290.098 109.568L312.882 114.944C334.13 119.808 344.882 129.536 344.882 148.992C344.882 174.592 323.122 190.464 291.89 190.464C260.402 190.464 240.434 173.568 240.434 148.736ZM401.43 187.136H370.198V86.7837H345.878V60.6717H370.198V21.2477H401.43V60.6717H426.006V86.7837H401.43V187.136ZM455.918 187.136H421.87L489.454 -0.000259399H522.99L590.574 187.136H556.014L540.91 143.872H471.022L455.918 187.136ZM501.998 55.8077L480.75 116.224H531.438L509.934 55.8077C508.398 50.9437 506.606 45.3117 506.094 41.4717C505.326 45.0557 503.79 50.6877 501.998 55.8077ZM599.192 245.76V60.6717H628.12L630.168 79.8717C637.848 65.2797 654.488 56.8317 673.688 56.8317C709.272 56.8317 732.824 82.6877 732.824 122.368C732.824 161.792 711.32 190.464 673.688 190.464C654.744 190.464 638.36 183.04 630.424 170.24V245.76H599.192ZM630.68 123.904C630.68 146.688 644.76 162.304 666.264 162.304C688.28 162.304 701.336 146.432 701.336 123.904C701.336 101.376 688.28 85.2477 666.264 85.2477C644.76 85.2477 630.68 101.12 630.68 123.904ZM747.452 245.76V60.6717H776.38L778.428 79.8717C786.108 65.2797 802.748 56.8317 821.948 56.8317C857.532 56.8317 881.084 82.6877 881.084 122.368C881.084 161.792 859.58 190.464 821.948 190.464C803.004 190.464 786.62 183.04 778.684 170.24V245.76H747.452ZM778.94 123.904C778.94 146.688 793.02 162.304 814.524 162.304C836.54 162.304 849.596 146.432 849.596 123.904C849.596 101.376 836.54 85.2477 814.524 85.2477C793.02 85.2477 778.94 101.12 778.94 123.904ZM885.984 148.736H915.68C915.936 159.744 924.128 166.656 938.464 166.656C953.056 166.656 960.992 160.768 960.992 151.552C960.992 145.152 957.664 140.544 946.4 137.984L923.616 132.608C900.832 127.488 889.824 116.736 889.824 96.5117C889.824 71.6797 910.816 56.8317 940 56.8317C968.416 56.8317 987.616 73.2157 987.872 97.7917H958.176C957.92 87.0397 950.752 80.1277 938.72 80.1277C926.432 80.1277 919.264 85.7597 919.264 95.2317C919.264 102.4 924.896 107.008 935.648 109.568L958.432 114.944C979.68 119.808 990.432 129.536 990.432 148.992C990.432 174.592 968.672 190.464 937.44 190.464C905.952 190.464 885.984 173.568 885.984 148.736Z" fill="black"/>
</svg>
