<svg width="800" height="800" viewBox="0 0 800 800" fill="none" xmlns="http://www.w3.org/2000/svg">
<g clip-path="url(#clip0_596_49)">
<path d="M399.5 708C569.328 708 707 570.328 707 400.5C707 230.672 569.328 93 399.5 93C229.672 93 92 230.672 92 400.5C92 570.328 229.672 708 399.5 708Z" fill="white"/>
<path d="M682.844 117.156C607.292 41.6063 506.844 0 400 0C178.92 0 0 178.902 0 400C0 621.08 178.902 800 400 800C621.08 800 800 621.098 800 400C800 293.156 758.394 192.708 682.844 117.156ZM340.372 487.341L264.741 538.867C250.444 548.608 230.806 538.448 230.806 520.927C230.806 504.98 230.806 289.598 230.806 282.517C230.806 265.03 250.4 254.805 264.741 264.577L340.372 316.105C340.372 334.494 340.372 468.702 340.372 487.341ZM601.444 419.664L426.48 538.867C412.183 548.608 392.545 538.448 392.545 520.927C392.545 513.861 392.545 298.52 392.545 282.517C392.545 265.03 412.139 254.805 426.48 264.577L601.444 383.78C607.38 387.823 610.931 394.539 610.931 401.72C610.93 408.903 607.38 415.62 601.444 419.664Z" fill="#00CED1"/>
</g>
<defs>
<clipPath id="clip0_596_49">
<rect width="800" height="800" fill="white"/>
</clipPath>
</defs>
</svg>
