<svg width="1200" height="630" viewBox="0 0 1200 630" fill="none" xmlns="http://www.w3.org/2000/svg">
<rect width="1200" height="630" fill="white"/>
<g transform="translate(400, 15)">
<g clip-path="url(#clip0_596_49)">
<path d="M249.688 442.5C356.457 442.5 442.188 356.769 442.188 250C442.188 143.231 356.457 57.5 249.688 57.5C142.919 57.5 57.188 143.231 57.188 250C57.188 356.769 142.919 442.5 249.688 442.5Z" fill="white"/>
<path d="M427.033 73.2225C380.182 26.0039 317.033 0 250 0C111.825 0 0 111.814 0 250C0 388.175 111.814 500 250 500C388.175 500 500 388.186 500 250C500 182.967 473.996 119.818 427.033 73.2225ZM212.733 304.588L165.463 336.792C156.528 342.88 144.254 336.53 144.254 325.579C144.254 315.613 144.254 180.749 144.254 176.573C144.254 165.644 156.5 159.253 165.463 165.361L212.733 197.566C212.733 209.059 212.733 292.939 212.733 304.588ZM375.903 262.29L266.55 336.792C257.614 342.88 245.341 336.53 245.341 325.579C245.341 321.163 245.341 186.575 245.341 176.573C245.341 165.644 257.587 159.253 266.55 165.361L375.903 239.863C379.613 242.389 381.832 246.587 381.832 251.075C381.831 255.564 379.613 259.763 375.903 262.29Z" fill="black"/>
</g>
<defs>
<clipPath id="clip0_596_49">
<rect width="500" height="500" fill="white"/>
</clipPath>
</defs>
</g>
</svg>

